<?xml version="1.0" encoding="utf-8"?><!DOCTYPE svg PUBLIC "-//W3C//DTD SVG 1.1//EN" "http://www.w3.org/Graphics/SVG/1.1/DTD/svg11.dtd"><svg xmlns="http://www.w3.org/2000/svg" xmlns:xlink="http://www.w3.org/1999/xlink"><symbol viewBox="0 0 10 10" id="add" xmlns="http://www.w3.org/2000/svg"><rect width="10" height="2" y="4" rx="1"/><rect width="10" height="2" y="4" rx="1" transform="matrix(0 -1 -1 0 10 10)"/></symbol><symbol viewBox="0 0 58 58" id="calculator" xmlns="http://www.w3.org/2000/svg"><path d="M21 14h-5V9a1 1 0 10-2 0v5H9a1 1 0 100 2h5v5a1 1 0 102 0v-5h5a1 1 0 100-2zM49 14H37a1 1 0 100 2h12a1 1 0 100-2z"/><path d="M30 0H0v58h58V0H30zM2 2h26v26H2V2zm0 54V30h26v26H2zm54 0H30V30h26v26zM30 28V2h26v26H30z"/><path d="M37 47h12a1 1 0 100-2H37a1 1 0 100 2zM37 41h12a1 1 0 100-2H37a1 1 0 100 2zM20.707 37.293a.999.999 0 00-1.414 0L15 41.586l-4.293-4.293a.999.999 0 10-1.414 1.414L13.586 43l-4.293 4.293a.999.999 0 101.414 1.414L15 44.414l4.293 4.293a.997.997 0 001.414 0 .999.999 0 000-1.414L16.414 43l4.293-4.293a.999.999 0 000-1.414z"/></symbol><symbol fill="none" viewBox="0 0 24 24" stroke="currentColor" id="cancel" xmlns="http://www.w3.org/2000/svg"><path stroke-linecap="round" stroke-linejoin="round" stroke-width="2" d="M6 18L18 6M6 6l12 12"/></symbol><symbol viewBox="0 0 10 10" id="check" xmlns="http://www.w3.org/2000/svg"><path fill-rule="evenodd" d="M1.517 5.776a.823.823 0 00-1.257 0 1.084 1.084 0 000 1.41l2.143 2.522a.823.823 0 001.26-.003l6.08-8.007a1.084 1.084 0 00-.006-1.41.823.823 0 00-1.257.007L3.029 7.591 1.517 5.776z"/></symbol><symbol viewBox="0 0 10 10" id="close" xmlns="http://www.w3.org/2000/svg"><g transform="rotate(45 5 5)"><rect width="10" height="2" y="4" rx="1"/><rect width="10" height="2" y="4" rx="1" transform="matrix(0 -1 -1 0 10 10)"/></g></symbol><symbol viewBox="0 0 5 3" id="de" xmlns="http://www.w3.org/2000/svg"><path d="M0 0h5v3H0z"/><path fill="#D00" d="M0 1h5v2H0z"/><path fill="#FFCE00" d="M0 2h5v1H0z"/></symbol><symbol viewBox="-56 0 512 512" id="duplicate" xmlns="http://www.w3.org/2000/svg"><path d="M399.8 95.012a15.635 15.635 0 00-.855-4.227c-.175-.512-.308-1.015-.535-1.504-.773-1.656-1.746-3.226-3.082-4.57-.008-.008-.012-.02-.023-.027L315.316 4.69c-.007-.007-.02-.011-.03-.023-1.348-1.344-2.927-2.316-4.587-3.094-.465-.215-.949-.34-1.437-.511-1.414-.5-2.856-.79-4.352-.88C304.594.165 304.324 0 304 0H80c-8.836 0-16 7.164-16 16v64H16C7.164 80 0 87.164 0 96v400c0 8.836 7.164 16 16 16h288c8.836 0 16-7.164 16-16s-7.164-16-16-16H32V112h32v320c0 8.836 7.164 16 16 16h304c8.836 0 16-7.164 16-16V96c0-.352-.176-.64-.2-.988zM320 54.625L345.375 80H320zM96 416V32h192v64c0 8.836 7.164 16 16 16h64v304zm0 0"/><path d="M304 208H160c-8.836 0-16-7.164-16-16s7.164-16 16-16h144c8.836 0 16 7.164 16 16s-7.164 16-16 16zm0 0M304 272H160c-8.836 0-16-7.164-16-16s7.164-16 16-16h144c8.836 0 16 7.164 16 16s-7.164 16-16 16zm0 0M304 336H160c-8.836 0-16-7.164-16-16s7.164-16 16-16h144c8.836 0 16 7.164 16 16s-7.164 16-16 16zm0 0"/></symbol><symbol viewBox="0 0 576 512" id="edit" xmlns="http://www.w3.org/2000/svg"><path d="M402.3 344.9l32-32c5-5 13.7-1.5 13.7 5.7V464c0 26.5-21.5 48-48 48H48c-26.5 0-48-21.5-48-48V112c0-26.5 21.5-48 48-48h273.5c7.1 0 10.7 8.6 5.7 13.7l-32 32c-1.5 1.5-3.5 2.3-5.7 2.3H48v352h352V350.5c0-2.1.8-4.1 2.3-5.6zm156.6-201.8L296.3 405.7l-90.4 10c-26.2 2.9-48.5-19.2-45.6-45.6l10-90.4L432.9 17.1c22.9-22.9 59.9-22.9 82.7 0l43.2 43.2c22.9 22.9 22.9 60 .1 82.8zM460.1 174L402 115.9 216.2 301.8l-7.3 65.3 65.3-7.3L460.1 174zm64.8-79.7l-43.2-43.2c-4.1-4.1-10.8-4.1-14.8 0L436 82l58.1 58.1 30.9-30.9c4-4.2 4-10.8-.1-14.9z"/></symbol><symbol viewBox="0 0 1300 650" id="en" xmlns="http://www.w3.org/2000/svg"><defs><g id="aib"><use xlink:href="#aia" transform="rotate(-144)"/><use xlink:href="#aia" transform="rotate(-72)"/><use xlink:href="#aia"/><use xlink:href="#aia" transform="rotate(72)"/><use xlink:href="#aia" transform="rotate(144)"/></g><g id="aic"><use xlink:href="#aib" x="-.252"/><use xlink:href="#aib" x="-.126"/><use xlink:href="#aib"/><use xlink:href="#aib" x=".126"/><use xlink:href="#aib" x=".252"/></g><g id="aid"><use xlink:href="#aic" x="-.063"/><use xlink:href="#aib" x=".315"/></g><g id="aie"><use xlink:href="#aid"/><use xlink:href="#aic" y=".054"/><use xlink:href="#aid" y=".108"/><use xlink:href="#aic" y=".162"/></g><g id="aig"><use xlink:href="#aie" y="-.216"/><use xlink:href="#aie"/><use xlink:href="#aid" y=".216"/></g><path id="aia" transform="scale(.0616)" fill="#FFF" d="M-.162 0L0-.5l.162.5z"/><path id="aif" fill="#B22234" d="M0 0h1300v50H0z"/></defs><path fill="#FFF" d="M0 0h1300v650H0z"/><use xlink:href="#aif"/><use xlink:href="#aif" y="100"/><use xlink:href="#aif" y="200"/><use xlink:href="#aif" y="300"/><use xlink:href="#aif" y="400"/><use xlink:href="#aif" y="500"/><use xlink:href="#aif" y="600"/><path fill="#3C3B6E" d="M0 0h494v350H0z"/><use xlink:href="#aig" transform="matrix(650 0 0 650 247 175)"/><svg viewBox="0 0 60 30" width="1300" height="650"><clipPath id="aii"><path d="M30 15l30 15V15H0v15h30z"/></clipPath><clipPath id="aih"><path d="M0 30h60V0z"/></clipPath><g clip-path="url(#aih)"><path d="M0 0v30h60V0z" fill="#00247d"/><path d="M0 0l60 30m0-30L0 30" stroke="#fff" stroke-width="6"/><path d="M0 30l30-15 30 15" clip-path="url(#aii)" fill="none" stroke="#cf142b" stroke-width="4"/><path d="M30 0v30M0 15h60" stroke="#fff" stroke-width="10"/><path d="M30 0v30M0 15h60" stroke="#cf142b" stroke-width="6"/></g></svg></symbol><symbol viewBox="0 0 60 30" id="en-gb" xmlns="http://www.w3.org/2000/svg"><clipPath id="aja"><path d="M30 15h30v15zv15H0zH0V0zV0h30z"/></clipPath><path d="M0 0v30h60V0z" fill="#00247d"/><path d="M0 0l60 30m0-30L0 30" stroke="#fff" stroke-width="6"/><path d="M0 0l60 30m0-30L0 30" clip-path="url(#aja)" stroke="#cf142b" stroke-width="4"/><path d="M30 0v30M0 15h60" stroke="#fff" stroke-width="10"/><path d="M30 0v30M0 15h60" stroke="#cf142b" stroke-width="6"/></symbol><symbol viewBox="0 0 7410 3900" id="en-us" xmlns="http://www.w3.org/2000/svg"><path fill="#b22234" d="M0 0h7410v3900H0z"/><path d="M0 450h7410m0 600H0m0 600h7410m0 600H0m0 600h7410m0 600H0" stroke="#fff" stroke-width="300"/><path fill="#3c3b6e" d="M0 0h2964v2100H0z"/><g fill="#fff"><g id="akd"><g id="akc"><g id="ake"><g id="akb"><path id="aka" d="M247 90l70.534 217.082-184.66-134.164h228.253L176.466 307.082z"/><use xlink:href="#aka" y="420"/><use xlink:href="#aka" y="840"/><use xlink:href="#aka" y="1260"/></g><use xlink:href="#aka" y="1680"/></g><use xlink:href="#akb" x="247" y="210"/></g><use xlink:href="#akc" x="494"/></g><use xlink:href="#akd" x="988"/><use xlink:href="#akc" x="1976"/><use xlink:href="#ake" x="2470"/></g></symbol><symbol viewBox="0 0 1792 1792" id="fa-angle-left" xmlns="http://www.w3.org/2000/svg"><path d="M1203 544q0 13-10 23L800 960l393 393q10 10 10 23t-10 23l-50 50q-10 10-23 10t-23-10L631 983q-10-10-10-23t10-23l466-466q10-10 23-10t23 10l50 50q10 10 10 23z"/></symbol><symbol viewBox="0 0 1792 1792" id="fa-angle-right" xmlns="http://www.w3.org/2000/svg"><path d="M1171 960q0 13-10 23l-466 466q-10 10-23 10t-23-10l-50-50q-10-10-10-23t10-23l393-393-393-393q-10-10-10-23t10-23l50-50q10-10 23-10t23 10l466 466q10 10 10 23z"/></symbol><symbol class="ansvg-inline--fa anfa-biking anfa-w-20" viewBox="0 0 640 512" id="fa-biking" xmlns="http://www.w3.org/2000/svg"><path fill="currentColor" d="M400 96a48 48 0 10-48-48 48 48 0 0048 48zm-4 121a31.9 31.9 0 0020 7h64a32 32 0 000-64h-52.78L356 103a31.94 31.94 0 00-40.81.68l-112 96a32 32 0 003.08 50.92L288 305.12V416a32 32 0 0064 0V288a32 32 0 00-14.25-26.62l-41.36-27.57 58.25-49.92zm116 39a128 128 0 10128 128 128 128 0 00-128-128zm0 192a64 64 0 1164-64 64 64 0 01-64 64zM128 256a128 128 0 10128 128 128 128 0 00-128-128zm0 192a64 64 0 1164-64 64 64 0 01-64 64z"/></symbol><symbol class="aosvg-inline--fa aofa-box aofa-w-16" viewBox="0 0 512 512" id="fa-box" xmlns="http://www.w3.org/2000/svg"><path fill="currentColor" d="M509.5 184.6L458.9 32.8C452.4 13.2 434.1 0 413.4 0H272v192h238.7c-.4-2.5-.4-5-1.2-7.4zM240 0H98.6c-20.7 0-39 13.2-45.5 32.8L2.5 184.6c-.8 2.4-.8 4.9-1.2 7.4H240V0zM0 224v240c0 26.5 21.5 48 48 48h416c26.5 0 48-21.5 48-48V224H0z"/></symbol><symbol class="apsvg-inline--fa apfa-car apfa-w-16" viewBox="0 0 512 512" id="fa-car" xmlns="http://www.w3.org/2000/svg"><path fill="currentColor" d="M499.99 176h-59.87l-16.64-41.6C406.38 91.63 365.57 64 319.5 64h-127c-46.06 0-86.88 27.63-103.99 70.4L71.87 176H12.01C4.2 176-1.53 183.34.37 190.91l6 24C7.7 220.25 12.5 224 18.01 224h20.07C24.65 235.73 16 252.78 16 272v48c0 16.12 6.16 30.67 16 41.93V416c0 17.67 14.33 32 32 32h32c17.67 0 32-14.33 32-32v-32h256v32c0 17.67 14.33 32 32 32h32c17.67 0 32-14.33 32-32v-54.07c9.84-11.25 16-25.8 16-41.93v-48c0-19.22-8.65-36.27-22.07-48H494c5.51 0 10.31-3.75 11.64-9.09l6-24c1.89-7.57-3.84-14.91-11.65-14.91zm-352.06-17.83c7.29-18.22 24.94-30.17 44.57-30.17h127c19.63 0 37.28 11.95 44.57 30.17L384 208H128l19.93-49.83zM96 319.8c-19.2 0-32-12.76-32-31.9S76.8 256 96 256s48 28.71 48 47.85-28.8 15.95-48 15.95zm320 0c-19.2 0-48 3.19-48-15.95S396.8 256 416 256s32 12.76 32 31.9-12.8 31.9-32 31.9z"/></symbol><symbol viewBox="0 0 1792 1792" id="fa-check" xmlns="http://www.w3.org/2000/svg"><path d="M1671 566q0 40-28 68l-724 724-136 136q-28 28-68 28t-68-28l-136-136-362-362q-28-28-28-68t28-68l136-136q28-28 68-28t68 28l294 295 656-657q28-28 68-28t68 28l136 136q28 28 28 68z"/></symbol><symbol class="arsvg-inline--fa arfa-percent arfa-w-14" viewBox="0 0 448 512" id="fa-discount" xmlns="http://www.w3.org/2000/svg"><path fill="currentColor" d="M112 224c61.9 0 112-50.1 112-112S173.9 0 112 0 0 50.1 0 112s50.1 112 112 112zm0-160c26.5 0 48 21.5 48 48s-21.5 48-48 48-48-21.5-48-48 21.5-48 48-48zm224 224c-61.9 0-112 50.1-112 112s50.1 112 112 112 112-50.1 112-112-50.1-112-112-112zm0 160c-26.5 0-48-21.5-48-48s21.5-48 48-48 48 21.5 48 48-21.5 48-48 48zM392.3.2l31.6-.1c19.4-.1 30.9 21.8 19.7 37.8L77.4 501.6a23.95 23.95 0 01-19.6 10.2l-33.4.1c-19.5 0-30.9-21.9-19.7-37.8l368-463.7C377.2 4 384.5.2 392.3.2z"/></symbol><symbol viewBox="0 0 1792 1792" id="fa-edit" xmlns="http://www.w3.org/2000/svg"><path d="M888 1184l116-116-152-152-116 116v56h96v96h56zm440-720q-16-16-33 1L945 815q-17 17-1 33t33-1l350-350q17-17 1-33zm80 594v190q0 119-84.5 203.5T1120 1536H288q-119 0-203.5-84.5T0 1248V416q0-119 84.5-203.5T288 128h832q63 0 117 25 15 7 18 23 3 17-9 29l-49 49q-14 14-32 8-23-6-45-6H288q-66 0-113 47t-47 113v832q0 66 47 113t113 47h832q66 0 113-47t47-113v-126q0-13 9-22l64-64q15-15 35-7t20 29zm-96-738l288 288-672 672H640V992zm444 132l-92 92-288-288 92-92q28-28 68-28t68 28l152 152q28 28 28 68t-28 68z"/></symbol><symbol class="atsvg-inline--fa atfa-hotel atfa-w-18" viewBox="0 0 576 512" id="fa-hotel" xmlns="http://www.w3.org/2000/svg"><path fill="currentColor" d="M560 64c8.84 0 16-7.16 16-16V16c0-8.84-7.16-16-16-16H16C7.16 0 0 7.16 0 16v32c0 8.84 7.16 16 16 16h15.98v384H16c-8.84 0-16 7.16-16 16v32c0 8.84 7.16 16 16 16h240v-80c0-8.8 7.2-16 16-16h32c8.8 0 16 7.2 16 16v80h240c8.84 0 16-7.16 16-16v-32c0-8.84-7.16-16-16-16h-16V64h16zm-304 44.8c0-6.4 6.4-12.8 12.8-12.8h38.4c6.4 0 12.8 6.4 12.8 12.8v38.4c0 6.4-6.4 12.8-12.8 12.8h-38.4c-6.4 0-12.8-6.4-12.8-12.8v-38.4zm0 96c0-6.4 6.4-12.8 12.8-12.8h38.4c6.4 0 12.8 6.4 12.8 12.8v38.4c0 6.4-6.4 12.8-12.8 12.8h-38.4c-6.4 0-12.8-6.4-12.8-12.8v-38.4zm-128-96c0-6.4 6.4-12.8 12.8-12.8h38.4c6.4 0 12.8 6.4 12.8 12.8v38.4c0 6.4-6.4 12.8-12.8 12.8h-38.4c-6.4 0-12.8-6.4-12.8-12.8v-38.4zM179.2 256h-38.4c-6.4 0-12.8-6.4-12.8-12.8v-38.4c0-6.4 6.4-12.8 12.8-12.8h38.4c6.4 0 12.8 6.4 12.8 12.8v38.4c0 6.4-6.4 12.8-12.8 12.8zM192 384c0-53.02 42.98-96 96-96s96 42.98 96 96H192zm256-140.8c0 6.4-6.4 12.8-12.8 12.8h-38.4c-6.4 0-12.8-6.4-12.8-12.8v-38.4c0-6.4 6.4-12.8 12.8-12.8h38.4c6.4 0 12.8 6.4 12.8 12.8v38.4zm0-96c0 6.4-6.4 12.8-12.8 12.8h-38.4c-6.4 0-12.8-6.4-12.8-12.8v-38.4c0-6.4 6.4-12.8 12.8-12.8h38.4c6.4 0 12.8 6.4 12.8 12.8v38.4z"/></symbol><symbol class="ausvg-inline--fa aufa-user-shield aufa-w-20" viewBox="0 0 640 512" id="fa-insurance" xmlns="http://www.w3.org/2000/svg"><path fill="currentColor" d="M622.3 271.1l-115.2-45c-4.1-1.6-12.6-3.7-22.2 0l-115.2 45c-10.7 4.2-17.7 14-17.7 24.9 0 111.6 68.7 188.8 132.9 213.9 9.6 3.7 18 1.6 22.2 0C558.4 489.9 640 420.5 640 296c0-10.9-7-20.7-17.7-24.9zM496 462.4V273.3l95.5 37.3c-5.6 87.1-60.9 135.4-95.5 151.8zM224 256c70.7 0 128-57.3 128-128S294.7 0 224 0 96 57.3 96 128s57.3 128 128 128zm96 40c0-2.5.8-4.8 1.1-7.2-2.5-.1-4.9-.8-7.5-.8h-16.7c-22.2 10.2-46.9 16-72.9 16s-50.6-5.8-72.9-16h-16.7C60.2 288 0 348.2 0 422.4V464c0 26.5 21.5 48 48 48h352c6.8 0 13.3-1.5 19.2-4-54-42.9-99.2-116.7-99.2-212z"/></symbol><symbol viewBox="0 0 1792 1792" id="fa-lock" xmlns="http://www.w3.org/2000/svg"><path d="M640 768h512V576q0-106-75-181t-181-75-181 75-75 181v192zm832 96v576q0 40-28 68t-68 28H416q-40 0-68-28t-28-68V864q0-40 28-68t68-28h32V576q0-184 132-316t316-132 316 132 132 316v192h32q40 0 68 28t28 68z"/></symbol><symbol viewBox="0 0 1792 1792" id="fa-pencil" xmlns="http://www.w3.org/2000/svg"><path d="M491 1536l91-91-235-235-91 91v107h128v128h107zm523-928q0-22-22-22-10 0-17 7l-542 542q-7 7-7 17 0 22 22 22 10 0 17-7l542-542q7-7 7-17zm-54-192l416 416-832 832H128v-416zm683 96q0 53-37 90l-166 166-416-416 166-165q36-38 90-38 53 0 91 38l235 234q37 39 37 91z"/></symbol><symbol class="axsvg-inline--fa axfa-plane axfa-w-18" viewBox="0 0 576 512" id="fa-plane" xmlns="http://www.w3.org/2000/svg"><path fill="currentColor" d="M480 192H365.71L260.61 8.06A16.014 16.014 0 00246.71 0h-65.5c-10.63 0-18.3 10.17-15.38 20.39L214.86 192H112l-43.2-57.6c-3.02-4.03-7.77-6.4-12.8-6.4H16.01C5.6 128-2.04 137.78.49 147.88L32 256 .49 364.12C-2.04 374.22 5.6 384 16.01 384H56c5.04 0 9.78-2.37 12.8-6.4L112 320h102.86l-49.03 171.6c-2.92 10.22 4.75 20.4 15.38 20.4h65.5c5.74 0 11.04-3.08 13.89-8.06L365.71 320H480c35.35 0 96-28.65 96-64s-60.65-64-96-64z"/></symbol><symbol viewBox="0 0 1792 1792" id="fa-plus" xmlns="http://www.w3.org/2000/svg"><path d="M1600 736v192q0 40-28 68t-68 28h-416v416q0 40-28 68t-68 28H800q-40 0-68-28t-28-68v-416H288q-40 0-68-28t-28-68V736q0-40 28-68t68-28h416V224q0-40 28-68t68-28h192q40 0 68 28t28 68v416h416q40 0 68 28t28 68z"/></symbol><symbol viewBox="0 0 1792 1792" id="fa-search" xmlns="http://www.w3.org/2000/svg"><path d="M1216 832q0-185-131.5-316.5T768 384 451.5 515.5 320 832t131.5 316.5T768 1280t316.5-131.5T1216 832zm512 832q0 52-38 90t-90 38q-54 0-90-38l-343-342q-179 124-399 124-143 0-273.5-55.5t-225-150-150-225T64 832t55.5-273.5 150-225 225-150T768 128t273.5 55.5 225 150 150 225T1472 832q0 220-124 399l343 343q37 37 37 90z"/></symbol><symbol viewBox="0 0 1792 1792" id="fa-sort" xmlns="http://www.w3.org/2000/svg"><path d="M1408 1088q0 26-19 45l-448 448q-19 19-45 19t-45-19l-448-448q-19-19-19-45t19-45 45-19h896q26 0 45 19t19 45zm0-384q0 26-19 45t-45 19H448q-26 0-45-19t-19-45 19-45l448-448q19-19 45-19t45 19l448 448q19 19 19 45z"/></symbol><symbol viewBox="0 0 1792 1792" id="fa-sort-asc" xmlns="http://www.w3.org/2000/svg"><path d="M1408 704q0 26-19 45t-45 19H448q-26 0-45-19t-19-45 19-45l448-448q19-19 45-19t45 19l448 448q19 19 19 45z"/></symbol><symbol viewBox="0 0 1792 1792" id="fa-sort-desc" xmlns="http://www.w3.org/2000/svg"><path d="M1408 1088q0 26-19 45l-448 448q-19 19-45 19t-45-19l-448-448q-19-19-19-45t19-45 45-19h896q26 0 45 19t19 45z"/></symbol><symbol viewBox="0 0 1792 1792" id="fa-times" xmlns="http://www.w3.org/2000/svg"><path d="M1490 1322q0 40-28 68l-136 136q-28 28-68 28t-68-28l-294-294-294 294q-28 28-68 28t-68-28l-136-136q-28-28-28-68t28-68l294-294-294-294q-28-28-28-68t28-68l136-136q28-28 68-28t68 28l294 294 294-294q28-28 68-28t68 28l136 136q28 28 28 68t-28 68l-294 294 294 294q28 28 28 68z"/></symbol><symbol class="besvg-inline--fa befa-exchange-alt befa-w-16" viewBox="0 0 512 512" id="fa-transfer" xmlns="http://www.w3.org/2000/svg"><path fill="currentColor" d="M0 168v-16c0-13.255 10.745-24 24-24h360V80c0-21.367 25.899-32.042 40.971-16.971l80 80c9.372 9.373 9.372 24.569 0 33.941l-80 80C409.956 271.982 384 261.456 384 240v-48H24c-13.255 0-24-10.745-24-24zm488 152H128v-48c0-21.314-25.862-32.08-40.971-16.971l-80 80c-9.372 9.373-9.372 24.569 0 33.941l80 80C102.057 463.997 128 453.437 128 432v-48h360c13.255 0 24-10.745 24-24v-16c0-13.255-10.745-24-24-24z"/></symbol><symbol class="bfsvg-inline--fa bffa-volleyball-ball bffa-w-16" viewBox="0 0 512 512" id="fa-volleyball" xmlns="http://www.w3.org/2000/svg"><path fill="currentColor" d="M231.39 243.48a285.56 285.56 0 00-22.7-105.7c-90.8 42.4-157.5 122.4-180.3 216.8a249 249 0 0056.9 81.1 333.87 333.87 0 01146.1-192.2zm-36.9-134.4a284.23 284.23 0 00-57.4-70.7c-91 49.8-144.8 152.9-125 262.2 33.4-83.1 98.4-152 182.4-191.5zm187.6 165.1c8.6-99.8-27.3-197.5-97.5-264.4-14.7-1.7-51.6-5.5-98.9 8.5A333.87 333.87 0 01279.19 241a285 285 0 00102.9 33.18zm-124.7 9.5a286.33 286.33 0 00-80.2 72.6c82 57.3 184.5 75.1 277.5 47.8a247.15 247.15 0 0042.2-89.9 336.1 336.1 0 01-80.9 10.4c-54.6-.1-108.9-14.1-158.6-40.9zm-98.3 99.7c-15.2 26-25.7 54.4-32.1 84.2a247.07 247.07 0 00289-22.1c-112.9 16.1-203.3-24.8-256.9-62.1zm180.3-360.6c55.3 70.4 82.5 161.2 74.6 253.6a286.59 286.59 0 0089.7-14.2c0-2 .3-4 .3-6 0-107.8-68.7-199.1-164.6-233.4z"/></symbol><symbol viewBox="0 0 1792 1792" id="fa-warning" xmlns="http://www.w3.org/2000/svg"><path d="M1024 1375v-190q0-14-9.5-23.5T992 1152H800q-13 0-22.5 9.5T768 1185v190q0 14 9.5 23.5t22.5 9.5h192q13 0 22.5-9.5t9.5-23.5zm-2-374l18-459q0-12-10-19-13-11-24-11H786q-11 0-24 11-10 7-10 21l17 457q0 10 10 16.5t24 6.5h185q14 0 23.5-6.5t10.5-16.5zm-14-934l768 1408q35 63-2 126-17 29-46.5 46t-63.5 17H128q-34 0-63.5-17T18 1601q-37-63-2-126L784 67q17-31 47-49t65-18 65 18 47 49z"/></symbol><symbol viewBox="0 0 3 2" id="fr" xmlns="http://www.w3.org/2000/svg"><path fill="#ED2939" d="M0 0h3v2H0z"/><path fill="#fff" d="M0 0h2v2H0z"/><path fill="#002395" d="M0 0h1v2H0z"/></symbol><symbol viewBox="0 0 512.001 512.001" id="hidden" xmlns="http://www.w3.org/2000/svg"><path d="M316.332 195.662c-4.16-4.16-10.923-4.16-15.083 0s-4.16 10.944 0 15.083c12.075 12.075 18.752 28.139 18.752 45.248 0 35.285-28.715 64-64 64-17.109 0-33.173-6.656-45.248-18.752-4.16-4.16-10.923-4.16-15.083 0-4.16 4.139-4.16 10.923 0 15.083 16.085 16.128 37.525 25.003 60.331 25.003 47.061 0 85.333-38.272 85.333-85.333 0-22.807-8.874-44.247-25.002-60.332zM270.87 172.131c-4.843-.853-9.792-1.472-14.869-1.472-47.061 0-85.333 38.272-85.333 85.333 0 5.077.619 10.027 1.493 14.869.917 5.163 5.419 8.811 10.475 8.811.619 0 1.237-.043 1.877-.171 5.781-1.024 9.664-6.571 8.64-12.352-.661-3.627-1.152-7.317-1.152-11.157 0-35.285 28.715-64 64-64 3.84 0 7.531.491 11.157 1.131 5.675 1.152 11.328-2.859 12.352-8.64 1.024-5.781-2.858-11.328-8.64-12.352z"/><path d="M509.462 249.102c-2.411-2.859-60.117-70.208-139.712-111.445-5.163-2.709-11.669-.661-14.379 4.587-2.709 5.227-.661 11.669 4.587 14.379 61.312 31.744 110.293 81.28 127.04 99.371-25.429 27.541-125.504 128-230.997 128-35.797 0-71.872-8.64-107.264-25.707-5.248-2.581-11.669-.341-14.229 4.971-2.581 5.291-.341 11.669 4.971 14.229 38.293 18.496 77.504 27.84 116.523 27.84 131.435 0 248.555-136.619 253.483-142.443 3.369-3.969 3.348-9.793-.023-13.782zM325.996 118.947c-24.277-8.171-47.829-12.288-69.995-12.288-131.435 0-248.555 136.619-253.483 142.443-3.115 3.669-3.371 9.003-.597 12.992 1.472 2.112 36.736 52.181 97.856 92.779a10.48 10.48 0 005.888 1.792c3.435 0 6.827-1.664 8.875-4.8 3.264-4.885 1.92-11.52-2.987-14.763-44.885-29.845-75.605-65.877-87.104-80.533 24.555-26.667 125.291-128.576 231.552-128.576 19.861 0 41.131 3.755 63.189 11.157 5.589 2.005 11.648-1.088 13.504-6.699 1.878-5.589-1.109-11.626-6.698-13.504z"/><path d="M444.865 67.128c-4.16-4.16-10.923-4.16-15.083 0L67.116 429.795c-4.16 4.16-4.16 10.923 0 15.083a10.716 10.716 0 007.552 3.115c2.731 0 5.461-1.045 7.531-3.115L444.865 82.211c4.16-4.16 4.16-10.923 0-15.083z"/></symbol><symbol viewBox="0 0 512 512" id="lock" xmlns="http://www.w3.org/2000/svg"><path d="M437 192h-32v-43a150 150 0 00-298 0v43H75c-6 0-11 5-11 11v266c0 24 19 43 43 43h298c24 0 43-19 43-43V203c0-6-5-11-11-11zM288 415a11 11 0 01-11 12h-42a11 11 0 01-11-12l7-61c-11-8-18-20-18-34a43 43 0 1168 34l7 61zm53-223H171v-43a85 85 0 01170 0v43z"/></symbol><symbol viewBox="0 0 60 60" class="bkIcon bkIcon--open" id="open_menu" xmlns="http://www.w3.org/2000/svg"><path d="M57 52H17a3 3 0 110-6h40a3 3 0 010 6zm0-19H17a3 3 0 110-6h40a3 3 0 010 6zm0-19H17a3 3 0 110-6h40a3 3 0 010 6z"/><circle cx="4" cy="11" r="4"/><circle cx="4" cy="30" r="4"/><circle cx="4" cy="49" r="4"/></symbol><symbol viewBox="0 0 438.529 438.528" id="refresh" xmlns="http://www.w3.org/2000/svg"><path d="M433.109 23.694c-3.614-3.612-7.898-5.424-12.848-5.424-4.948 0-9.226 1.812-12.847 5.424l-37.113 36.835c-20.365-19.226-43.684-34.123-69.948-44.684C274.091 5.283 247.056.003 219.266.003c-52.344 0-98.022 15.843-137.042 47.536-39.021 31.689-64.715 73.035-77.087 124.048v1.997c0 2.474.903 4.617 2.712 6.423 1.809 1.809 3.949 2.712 6.423 2.712h56.814c4.189 0 7.042-2.19 8.566-6.565 7.993-19.032 13.035-30.166 15.131-33.403 13.322-21.698 31.023-38.734 53.103-51.106 22.082-12.371 45.873-18.559 71.376-18.559 38.261 0 71.473 13.039 99.645 39.115l-39.406 39.397c-3.607 3.617-5.421 7.902-5.421 12.851 0 4.948 1.813 9.231 5.421 12.847 3.621 3.617 7.905 5.424 12.854 5.424h127.906c4.949 0 9.233-1.807 12.848-5.424 3.613-3.616 5.42-7.898 5.42-12.847V36.542c0-4.949-1.796-9.23-5.42-12.848zM422.253 255.813h-54.816c-4.188 0-7.043 2.187-8.562 6.566-7.99 19.034-13.038 30.163-15.129 33.4-13.326 21.693-31.028 38.735-53.102 51.106-22.083 12.375-45.874 18.556-71.378 18.556-18.461 0-36.259-3.423-53.387-10.273-17.13-6.858-32.454-16.567-45.966-29.13l39.115-39.112c3.615-3.613 5.424-7.901 5.424-12.847 0-4.948-1.809-9.236-5.424-12.847-3.617-3.62-7.898-5.431-12.847-5.431H18.274c-4.952 0-9.235 1.811-12.851 5.431C1.807 264.844 0 269.132 0 274.08v127.907c0 4.945 1.807 9.232 5.424 12.847 3.619 3.61 7.902 5.428 12.851 5.428 4.948 0 9.229-1.817 12.847-5.428l36.829-36.833c20.367 19.41 43.542 34.355 69.523 44.823 25.981 10.472 52.866 15.701 80.653 15.701 52.155 0 97.643-15.845 136.471-47.534 38.828-31.688 64.333-73.042 76.52-124.05.191-.38.281-1.047.281-1.995 0-2.478-.907-4.612-2.715-6.427-1.81-1.799-3.953-2.706-6.431-2.706z"/></symbol><symbol viewBox="0 0 438.5 438.5" id="remove" xmlns="http://www.w3.org/2000/svg"><path d="M417.7 75.7A8.9 8.9 0 00411 73h-88l-20-47.7c-2.8-7-8-13-15.4-18S272.5 0 264.9 0h-91.3C166 0 158.5 2.5 151 7.4c-7.4 5-12.5 11-15.4 18l-20 47.7H27.4a9 9 0 00-6.6 2.6 9 9 0 00-2.5 6.5v18.3c0 2.7.8 4.8 2.5 6.6a8.9 8.9 0 006.6 2.5h27.4v271.8c0 15.8 4.5 29.3 13.4 40.4a40.2 40.2 0 0032.3 16.7H338c12.6 0 23.4-5.7 32.3-17.2a64.8 64.8 0 0013.4-41V109.6h27.4c2.7 0 4.9-.8 6.6-2.5a8.9 8.9 0 002.6-6.6V82.2a9 9 0 00-2.6-6.5zm-248.4-36a8 8 0 014.9-3.2h90.5a8 8 0 014.8 3.2L283.2 73H155.3l14-33.4zm177.9 340.6a32.4 32.4 0 01-6.2 19.3c-1.4 1.6-2.4 2.4-3 2.4H100.5c-.6 0-1.6-.8-3-2.4a32.5 32.5 0 01-6.1-19.3V109.6h255.8v270.7z"/><path d="M137 347.2h18.3c2.7 0 4.9-.9 6.6-2.6a9 9 0 002.5-6.6V173.6a9 9 0 00-2.5-6.6 8.9 8.9 0 00-6.6-2.6H137c-2.6 0-4.8.9-6.5 2.6a8.9 8.9 0 00-2.6 6.6V338c0 2.7.9 4.9 2.6 6.6a8.9 8.9 0 006.5 2.6zm73.1 0h18.3a8.9 8.9 0 009.1-9.1V173.5c0-2.7-.8-4.9-2.5-6.6a8.9 8.9 0 00-6.6-2.6h-18.3a8.9 8.9 0 00-9.1 9.1V338a8.9 8.9 0 009.1 9.1zm73.1 0h18.3c2.7 0 4.8-.9 6.6-2.6a8.9 8.9 0 002.5-6.6V173.6c0-2.7-.8-4.9-2.5-6.6a8.9 8.9 0 00-6.6-2.6h-18.3a9 9 0 00-6.6 2.6 8.9 8.9 0 00-2.5 6.6V338a9 9 0 002.5 6.6 9 9 0 006.6 2.6z"/></symbol><symbol viewBox="0 0 57 57" class="bnIcon bnIcon--open" id="search" xmlns="http://www.w3.org/2000/svg"><path d="M55.1 51.9L41.6 37.8A23 23 0 0024 0a23 23 0 1013.2 41.8L50.8 56a3 3 0 004.3.1 3 3 0 000-4.2zM24 6a17 17 0 110 34 17 17 0 010-34z"/></symbol><symbol viewBox="0 0 19.481 19.481" id="star" xmlns="http://www.w3.org/2000/svg"><path d="M10.201.758l2.478 5.865 6.344.545a.5.5 0 01.285.876l-4.812 4.169 1.442 6.202a.5.5 0 01-.745.541l-5.452-3.288-5.452 3.288a.5.5 0 01-.745-.541l1.442-6.202-4.813-4.17a.5.5 0 01.285-.876l6.344-.545L9.28.758a.5.5 0 01.921 0z"/></symbol><symbol class="bpsvg-inline--fa bpfa-unlock-alt bpfa-w-14" viewBox="0 0 448 512" id="unlock" xmlns="http://www.w3.org/2000/svg"><path fill="currentColor" d="M400 256H152V152.9c0-39.6 31.7-72.5 71.3-72.9 40-.4 72.7 32.1 72.7 72v16c0 13.3 10.7 24 24 24h32c13.3 0 24-10.7 24-24v-16C376 68 307.5-.3 223.5 0 139.5.3 72 69.5 72 153.5V256H48c-26.5 0-48 21.5-48 48v160c0 26.5 21.5 48 48 48h352c26.5 0 48-21.5 48-48V304c0-26.5-21.5-48-48-48zM264 408c0 22.1-17.9 40-40 40s-40-17.9-40-40v-48c0-22.1 17.9-40 40-40s40 17.9 40 40v48z"/></symbol><symbol viewBox="0 0 511.992 511.992" id="visible" xmlns="http://www.w3.org/2000/svg"><path d="M510.096 249.937c-4.032-5.867-100.928-143.275-254.101-143.275-131.435 0-248.555 136.619-253.483 142.443-3.349 3.968-3.349 9.792 0 13.781C7.44 268.71 124.56 405.329 255.995 405.329S504.549 268.71 509.477 262.886c3.094-3.669 3.371-8.981.619-12.949zM255.995 383.996c-105.365 0-205.547-100.48-230.997-128 25.408-27.541 125.483-128 230.997-128 123.285 0 210.304 100.331 231.552 127.424-24.534 26.645-125.291 128.576-231.552 128.576z"/><path d="M255.995 170.662c-47.061 0-85.333 38.272-85.333 85.333s38.272 85.333 85.333 85.333 85.333-38.272 85.333-85.333-38.272-85.333-85.333-85.333zm0 149.334c-35.285 0-64-28.715-64-64s28.715-64 64-64 64 28.715 64 64-28.715 64-64 64z"/></symbol></svg>