<svg xmlns="http://www.w3.org/2000/svg" width="438.5" height="438.5"><path d="M417.7 75.7A8.9 8.9 0 0 0 411 73H323l-20-47.7c-2.8-7-8-13-15.4-18S272.5 0 264.9 0h-91.3C166 0 158.5 2.5 151 7.4c-7.4 5-12.5 11-15.4 18l-20 47.7H27.4a9 9 0 0 0-6.6 2.6 9 9 0 0 0-2.5 6.5v18.3c0 2.7.8 4.8 2.5 6.6a8.9 8.9 0 0 0 6.6 2.5h27.4v271.8c0 15.8 4.5 29.3 13.4 40.4a40.2 40.2 0 0 0 32.3 16.7H338c12.6 0 23.4-5.7 32.3-17.2a64.8 64.8 0 0 0 13.4-41V109.6h27.4c2.7 0 4.9-.8 6.6-2.5a8.9 8.9 0 0 0 2.6-6.6V82.2a9 9 0 0 0-2.6-6.5zm-248.4-36a8 8 0 0 1 4.9-3.2h90.5a8 8 0 0 1 4.8 3.2L283.2 73H155.3l14-33.4zm177.9 340.6a32.4 32.4 0 0 1-6.2 19.3c-1.4 1.6-2.4 2.4-3 2.4H100.5c-.6 0-1.6-.8-3-2.4a32.5 32.5 0 0 1-6.1-19.3V109.6h255.8v270.7z"/><path d="M137 347.2h18.3c2.7 0 4.9-.9 6.6-2.6a9 9 0 0 0 2.5-6.6V173.6a9 9 0 0 0-2.5-6.6 8.9 8.9 0 0 0-6.6-2.6H137c-2.6 0-4.8.9-6.5 2.6a8.9 8.9 0 0 0-2.6 6.6V338c0 2.7.9 4.9 2.6 6.6a8.9 8.9 0 0 0 6.5 2.6zM210.1 347.2h18.3a8.9 8.9 0 0 0 9.1-9.1V173.5c0-2.7-.8-4.9-2.5-6.6a8.9 8.9 0 0 0-6.6-2.6h-18.3a8.9 8.9 0 0 0-9.1 9.1V338a8.9 8.9 0 0 0 9.1 9.1zM283.2 347.2h18.3c2.7 0 4.8-.9 6.6-2.6a8.9 8.9 0 0 0 2.5-6.6V173.6c0-2.7-.8-4.9-2.5-6.6a8.9 8.9 0 0 0-6.6-2.6h-18.3a9 9 0 0 0-6.6 2.6 8.9 8.9 0 0 0-2.5 6.6V338a9 9 0 0 0 2.5 6.6 9 9 0 0 0 6.6 2.6z"/></svg>
